<svg xmlns="http://www.w3.org/2000/svg" width="960" height="280" viewBox="0 0 960 280" role="img" aria-labelledby="title desc">
  <title id="title">SETU TRACK logo</title>
  <desc id="desc">SETU TRACK wordmark with interlocking symbol and the tagline CONNECT . TRACK . GROW.</desc>
  <defs>
    <linearGradient id="g1" x1="0%" x2="100%" y1="0%" y2="100%">
      <stop offset="0%" stop-color="#15C6B4"/>
      <stop offset="100%" stop-color="#1F6FE5"/>
    </linearGradient>
    <linearGradient id="g2" x1="0%" x2="100%" y1="100%" y2="0%">
      <stop offset="0%" stop-color="#243B6B"/>
      <stop offset="100%" stop-color="#0D2E64"/>
    </linearGradient>
  </defs>
  <g transform="translate(24,26)">
    <rect width="156" height="156" rx="36" fill="#F3F7FC"/>
    <path d="M43 99c0-9 4-17 10-23l23-23c14-14 36-14 50 0l8 8-23 23-7-7a10 10 0 0 0-14 0L67 100a10 10 0 0 0 0 14l7 7-23 23-8-8c-6-6-10-15-10-23v-14Z" fill="url(#g2)"/>
    <path d="M113 43c9 0 17 4 23 10l23 23c14 14 14 36 0 50l-8 8-23-23 7-7a10 10 0 0 0 0-14L112 67a10 10 0 0 0-14 0l-7 7-23-23 8-8c6-6 15-10 23-10h14Z" fill="url(#g1)"/>
    <path d="M156 113c0 9-4 17-10 23l-23 23c-14 14-36 14-50 0l-8-8 23-23 7 7a10 10 0 0 0 14 0l23-23a10 10 0 0 0 0-14l-7-7 23-23 8 8c6 6 10 15 10 23v14Z" fill="url(#g1)" opacity="0.95"/>
    <path d="M86 156c-9 0-17-4-23-10L40 123c-14-14-14-36 0-50l8-8 23 23-7 7a10 10 0 0 0 0 14l23 23a10 10 0 0 0 14 0l7-7 23 23-8 8c-6 6-15 10-23 10H86Z" fill="url(#g2)"/>
    <path d="M74 120 120 74" stroke="#FFFFFF" stroke-width="16" stroke-linecap="round"/>
    <path d="M84 84h42v42" fill="none" stroke="#FFFFFF" stroke-width="16" stroke-linecap="round" stroke-linejoin="round"/>
  </g>
  <g transform="translate(214,72)" fill="#102A56">
    <text x="0" y="64" font-size="62" font-family="Inter, Arial, sans-serif" font-weight="800" letter-spacing="-1.5">SETU TRACK</text>
    <text x="0" y="108" font-size="18" font-family="Inter, Arial, sans-serif" font-weight="700" letter-spacing="4" fill="#1DAAA3">CONNECT . TRACK . GROW</text>
  </g>
</svg>
